<?xml version="1.0" encoding="utf-8"?>
<!-- Generator: Adobe Illustrator 28.3.0, SVG Export Plug-In . SVG Version: 6.00 Build 0)  -->
<svg version="1.1" id="Layer_1" xmlns="http://www.w3.org/2000/svg" xmlns:xlink="http://www.w3.org/1999/xlink" x="0px" y="0px"
	 viewBox="0 0 91 91" style="enable-background:new 0 0 91 91;" xml:space="preserve">
<style type="text/css">
	.st0{fill:#FFFFFF;}
</style>
<g>
	<path d="M10.6,35.6c0-0.3,0-0.5,0-0.8c0-5,0-9.9,0-14.9c0-0.5,0.1-0.7,0.5-1c5-3.7,10-7.5,15-11.2c0.2-0.2,0.5-0.3,0.8-0.3
		c8.1,0,16.2,0,24.3,0c0.2,0,0.3,0,0.6,0c0,0.4,0,0.9,0,1.3c0.9-0.3,1.7-0.7,2.5-0.9c7.5-2.6,15.8-0.2,20.8,6
		c2.7,3.3,4.1,7.1,4.9,11.2c0.6,3.2,0.8,6.4,0.5,9.6c-0.5,4.4-1.7,8.6-4.2,12.3c-1.5,2.3-3.5,4.1-5.7,5.6C67,55,63.5,57.4,60,59.7
		c-0.3,0.2-0.5,0.5-0.5,0.9c0,3.8,0,7.7,0,11.5c0,0.4-0.1,0.7-0.5,1c-4.9,3.7-9.9,7.4-14.8,11c-0.3,0.2-0.8,0.4-1.2,0.4
		c-10.9,0-21.8,0-32.7,0c-0.8,0-0.8,0-0.8-0.8c0-4.9,0-9.8,0-14.7c0-0.5,0.2-0.8,0.6-1c1.9-1.1,3.8-2.2,5.6-3.2
		c0.3-0.2,0.5-0.4,0.5-0.8c0-9.2,0-18.4,0-27.7c0-0.5-0.1-0.6-0.6-0.6C14,35.7,12.3,35.6,10.6,35.6z M48.3,47.2
		c0.3,0.3,0.6,0.5,0.8,0.7c3.1,2.8,6.8,4.3,11,4.2c6.1-0.1,10.8-2.9,13.9-8.2c1.9-3.3,2.8-6.9,3-10.7c0.2-4.6-0.4-9.1-2.4-13.3
		c-2.5-5.2-6.6-8.6-12.5-9.3c-4.7-0.6-8.8,0.8-12.4,3.9c-0.5,0.4-0.9,0.9-1.3,1.3c0,0-0.1-0.1-0.1-0.1c0-1.6,0-3.2,0-4.8
		c-6.1,0-12.2,0-18.3,0c0,3.1,0,6.2,0,9.4c1.9,0,3.7,0,5.6,0c0,13.2,0,26.4,0,39.7c-2.3,0-4.5,0-6.7,0c0,3.1,0,6.1,0,9.2
		c9.1,0,18.2,0,27.2,0c0-3.1,0-6.1,0-9.2c-2.6,0-5.2,0-7.8,0C48.3,55.7,48.3,51.5,48.3,47.2z"/>
	<path class="st0" d="M48.3,47.2c0,4.3,0,8.5,0,12.8c2.6,0,5.2,0,7.8,0c0,3.1,0,6.1,0,9.2c-9,0-18.1,0-27.2,0c0-3.1,0-6.1,0-9.2
		c2.2,0,4.4,0,6.7,0c0-13.2,0-26.4,0-39.7c-1.8,0-3.7,0-5.6,0c0-3.2,0-6.3,0-9.4c6.1,0,12.1,0,18.3,0c0,1.6,0,3.2,0,4.8
		c0,0,0.1,0.1,0.1,0.1c0.4-0.5,0.8-0.9,1.3-1.3c3.6-3.1,7.7-4.5,12.4-3.9c5.9,0.7,10,4.1,12.5,9.3c2,4.2,2.6,8.7,2.4,13.3
		c-0.2,3.8-1.1,7.4-3,10.7c-3.1,5.3-7.7,8.1-13.9,8.2c-4.2,0.1-7.9-1.4-11-4.2C48.8,47.7,48.6,47.5,48.3,47.2z M53.8,39.7
		c5.1-3.1,10-6.1,15.1-9.2c-5.1-3.1-10.1-6.1-15.1-9.2C53.8,27.6,53.8,33.6,53.8,39.7z"/>
	<path d="M53.8,39.7c0-6.1,0-12.2,0-18.3c5,3.1,10,6.1,15.1,9.2C63.8,33.6,58.8,36.7,53.8,39.7z"/>
</g>
</svg>
